<?xml version="1.0" standalone="no"?><!DOCTYPE svg PUBLIC "-//W3C//DTD SVG 1.1//EN" "http://www.w3.org/Graphics/SVG/1.1/DTD/svg11.dtd"><svg t="1624088947678" class="icon" viewBox="0 0 1024 1024" version="1.1" xmlns="http://www.w3.org/2000/svg" p-id="1390" width="48" height="48" xmlns:xlink="http://www.w3.org/1999/xlink"><defs><style type="text/css"></style></defs><path d="M92.416 120.576h59.136v791.296H92.416z" p-id="1391" fill="#1296db"></path><path d="M107.264 475.136h189.44v60.16h-189.44zM211.712 17.152h-184.32A28.16 28.16 0 0 0 0 45.312V230.4a30.464 30.464 0 0 0 31.488 29.952h184.32a25.6 25.6 0 0 0 27.904-25.6V49.664A33.28 33.28 0 0 0 211.712 17.152z m747.264 0h-588.8a28.16 28.16 0 0 0-27.136 28.16V230.4a30.464 30.464 0 0 0 31.488 29.952h588.8a25.6 25.6 0 0 0 25.6-25.6V49.664A32 32 0 0 0 958.976 17.152zM756.992 386.56H370.688a28.928 28.928 0 0 0-27.136 29.184v184.064a30.72 30.72 0 0 0 31.488 30.464h386.304a26.88 26.88 0 0 0 27.648-25.6V419.84a33.792 33.792 0 0 0-32-33.28zM107.264 852.992h189.44v59.136h-189.44z m885.248-88.576H370.688A28.16 28.16 0 0 0 343.552 793.6v184.32a30.464 30.464 0 0 0 31.488 29.952h621.824a25.6 25.6 0 0 0 27.392-25.6v-184.32a32.512 32.512 0 0 0-31.744-32.256z m0 0" p-id="1392" fill="#1296db"></path></svg>